<svg width="43" height="35" viewBox="0 0 90 25" fill="none" xmlns="http://www.w3.org/2000/svg" style="margin-left: 10px; margin-top: 3px;">
<path d="M10.2763 11.3205C10.2571 11.282 10.2474 11.2531 10.2474 11.2338C9.997 10.444 9.87177 9.21102 9.87177 7.53496V7.41937C9.87177 7.0148 9.78508 6.81252 9.61169 6.81252C8.84109 6.81252 8.45579 7.03407 8.45579 7.47716L8.57138 8.80645C8.57138 8.92204 8.44616 9.28808 8.19571 9.90456C7.94527 10.521 7.82004 11.0123 7.82004 11.3783C7.82004 11.7444 7.86821 11.9274 7.96453 11.9274C8.13792 11.9274 8.398 11.8696 8.74477 11.754C9.09154 11.6191 9.42868 11.5517 9.75618 11.5517C10.103 11.5517 10.2763 11.4747 10.2763 11.3205ZM4.7858 5.19425L4.41013 3.51819C4.41013 3.34481 5.1422 2.86318 6.60635 2.07331C8.08976 1.26418 8.96632 0.830719 9.23603 0.772924C9.50574 0.715129 9.997 0.686231 10.7098 0.686231C11.4226 0.686231 12.0873 0.753658 12.7037 0.888513C14.0138 1.17749 14.6688 1.45683 14.6688 1.72654C14.6688 1.74581 14.6206 1.99625 14.5243 2.47788C14.216 3.98055 14.0619 5.17499 14.0619 6.06118C14.0619 6.15751 14.1582 6.23457 14.3509 6.29236C14.5435 6.33089 14.6399 6.35979 14.6399 6.37905C14.6399 6.99554 14.8229 8.86425 15.1889 11.9852C15.5742 15.0869 15.9017 17.0423 16.1714 17.8514V17.8803C16.1714 17.9188 16.0173 18.044 15.7091 18.256C15.4201 18.4679 15.2756 18.6991 15.2756 18.9495C15.2756 19.1999 15.4201 19.3733 15.7091 19.4697C16.0173 19.566 16.3159 19.643 16.6049 19.7008C16.8939 19.7394 17.0384 19.8357 17.0384 19.9898C17.0191 20.0283 17.0095 20.0958 17.0095 20.1921C17.0095 20.2884 17.0384 20.4618 17.0962 20.7123C17.154 21.0976 17.3851 21.6081 17.7897 22.2438L17.9631 22.5328C17.9631 22.8603 17.414 23.2071 16.3159 23.5731C15.2371 23.9584 14.428 24.1511 13.8885 24.1511C13.3684 24.1511 12.8482 24.0451 12.3281 23.8332C11.8272 23.6405 11.413 23.4286 11.0855 23.1974C10.7772 22.9663 10.6231 22.8025 10.6231 22.7062C10.6231 22.6869 10.6424 22.581 10.6809 22.3883C10.7772 21.9067 10.8254 21.3865 10.8254 20.8278L10.1896 16.8689C10.1896 16.7918 10.363 16.7244 10.7098 16.6666C11.0566 16.6088 11.23 16.4836 11.23 16.2909C11.23 16.0405 11.0855 15.8286 10.7965 15.6552C10.5075 15.4818 10.1511 15.3951 9.72729 15.3951C9.32272 15.3951 8.83146 15.5011 8.25351 15.713C7.69482 15.9249 7.36732 16.1272 7.27099 16.3198C7.19393 16.4932 7.05908 17.3505 6.86642 18.8917C6.67377 20.4136 6.57745 21.5503 6.57745 22.3016C6.57745 22.4557 6.06692 22.6677 5.04588 22.9374C4.02483 23.2071 3.17717 23.3419 2.50289 23.3419C2.15612 23.3419 1.5878 23.0915 0.797933 22.5906L0.422264 22.3594C0.364469 22.3016 0.335571 22.2149 0.335571 22.0993V22.0415C0.624547 21.6755 0.971318 20.8953 1.37588 19.7008L1.60706 19.0651C1.85751 19.0651 2.14649 18.9206 2.47399 18.6316C2.82076 18.3234 2.99415 18.1115 2.99415 17.9959C2.99415 17.861 2.88819 17.6587 2.67628 17.389C2.46436 17.1001 2.3584 16.9267 2.3584 16.8689V16.84L3.42761 14.1814C3.42761 13.7576 3.64916 12.2645 4.09226 9.70228C4.55462 7.14002 4.7858 5.63735 4.7858 5.19425ZM31.943 7.65055L31.4228 8.83535C31.4228 8.95094 31.471 9.10506 31.5673 9.29771C31.6636 9.4711 31.7503 9.55779 31.8274 9.55779C32.4246 9.36514 32.7232 9.20138 32.7232 9.06653C32.7232 9.028 32.9448 8.88351 33.3879 8.63307C33.8309 8.38262 34.0525 8.10328 34.0525 7.79503C34.0525 7.71797 34.014 7.61202 33.9369 7.47716C33.8598 7.34231 33.8213 7.19782 33.8213 7.0437C33.8213 6.88958 33.8791 6.6584 33.9947 6.35016L34.1392 5.91669C34.1392 5.64698 34.0043 5.31948 33.7346 4.93418C33.4649 4.54887 33.2145 4.35622 32.9833 4.35622C32.7521 4.35622 32.5017 4.46218 32.232 4.6741C31.9622 4.86675 31.8178 5.01124 31.7985 5.10756V5.16536L31.943 7.65055ZM31.8852 16.1753L31.7696 17.7936C31.7696 18.1596 31.8178 18.4871 31.9141 18.7761C32.0297 19.0651 32.1453 19.2096 32.2608 19.2096C32.415 19.2096 32.6943 19.1614 33.0989 19.0651C33.5227 18.9495 33.8021 18.8339 33.9369 18.7183C34.1296 18.5257 34.3318 18.1982 34.5438 17.7358C34.7557 17.2542 34.8616 16.9267 34.8616 16.7533C34.8616 16.5606 34.7075 16.2813 34.3993 15.9153C34.091 15.5492 33.9369 15.318 33.9369 15.2217L34.1681 14.2392C34.1681 14.0273 33.9947 13.825 33.6479 13.6323C33.3204 13.4204 33.07 13.3145 32.8966 13.3145C32.7232 13.3145 32.492 13.5168 32.2031 13.9213C31.9333 14.3066 31.7985 14.5571 31.7985 14.6727L31.8852 15.9153V16.1753ZM39.6008 18.7761C39.177 19.0266 38.9651 19.2674 38.9651 19.4986C38.9651 19.7105 39.0999 20.0091 39.3697 20.3944C39.3697 20.5292 39.1385 20.8086 38.6761 21.2324C38.233 21.6562 37.8381 21.9934 37.4913 22.2438C37.1445 22.475 36.5859 22.7543 35.8153 23.0819C35.0639 23.4094 34.4956 23.5731 34.1103 23.5731C33.7443 23.5731 33.1374 23.419 32.2897 23.1108C31.4421 22.8218 30.9894 22.6773 30.9316 22.6773C30.8738 22.6773 30.6811 22.8507 30.3536 23.1974C30.0261 23.5635 29.766 23.7465 29.5734 23.7465C28.9184 23.7465 28.0803 23.4383 27.0593 22.8218C26.0575 22.2053 25.5566 21.7815 25.5566 21.5503C25.5566 21.5118 25.624 21.3384 25.7589 21.0301C26.1442 20.1439 26.3368 18.9495 26.3368 17.4468L26.279 16.1464C26.279 16.1272 26.3465 16.0886 26.4813 16.0308C26.9244 15.8575 27.146 15.6166 27.146 15.3084C27.146 15.0002 26.9822 14.7112 26.6547 14.4415C26.3465 14.1718 26.1924 14.0176 26.1924 13.9791V13.9502C26.3272 13.5264 26.3946 12.7943 26.3946 11.754L26.3079 8.08401V7.67944C26.3079 7.56385 26.2309 7.39047 26.0768 7.15929C25.9419 6.92811 25.8745 6.74509 25.8745 6.61023C25.8745 6.45611 25.9997 6.2153 26.2502 5.8878C26.5006 5.56029 26.6258 5.29058 26.6258 5.07866C26.6258 4.86675 26.3946 4.38512 25.9323 3.63378C25.4892 2.88245 25.2676 2.49715 25.2676 2.47788C25.2676 2.22744 25.6529 1.88066 26.4235 1.43757C27.1941 0.975206 27.7817 0.744025 28.1863 0.744025C29.034 0.320195 29.6793 0.10828 30.1224 0.10828C30.2958 0.10828 30.5655 0.435785 30.9316 1.0908C31.3169 1.74581 31.5384 2.07331 31.5962 2.07331C31.654 2.07331 31.9237 1.92883 32.4053 1.63985C33.8117 0.792189 34.8424 0.368358 35.4974 0.368358C36.1717 0.368358 36.9904 0.666966 37.9537 1.26418C38.9169 1.84213 39.3985 2.3045 39.3985 2.65127L39.0229 3.02693C38.7724 3.27738 38.6472 3.52783 38.6472 3.77827C38.6472 3.99019 38.8302 4.14431 39.1963 4.24063C39.5816 4.31769 39.7742 4.37549 39.7742 4.41402C39.7742 6.2442 39.3311 7.60238 38.4449 8.48858C38.233 8.70049 37.9055 8.95094 37.4624 9.23991C37.0386 9.52889 36.7014 9.7986 36.451 10.049C36.2198 10.2802 36.1042 10.5499 36.1042 10.8582C36.1813 11.1472 36.2776 11.2916 36.3932 11.2916C36.4317 11.2916 36.6533 11.1857 37.0578 10.9738C37.4817 10.7426 37.8477 10.627 38.156 10.627C38.2715 10.627 38.522 10.8582 38.9073 11.3205C39.3119 11.7636 39.7068 12.409 40.0921 13.2567C40.4967 14.1043 40.6989 14.8268 40.6989 15.424C40.6989 16.0212 40.6315 16.6377 40.4967 17.2734C40.3618 17.9092 40.2944 18.2752 40.2944 18.3715C40.2944 18.4486 40.2462 18.516 40.1499 18.5738C39.9187 18.7087 39.7357 18.7761 39.6008 18.7761ZM54.2463 6.11898L54.3041 6.49465C54.3041 6.55244 54.2366 6.89921 54.1018 7.53496C53.9669 8.15144 53.8995 8.71013 53.8995 9.21102C53.8995 9.28808 54.0151 9.4422 54.2463 9.67338C54.4774 9.88529 54.593 10.1068 54.593 10.338C54.593 10.5499 54.4389 10.7908 54.1307 11.0605C53.8224 11.3302 53.6683 11.5325 53.6683 11.6673C53.6683 11.8022 53.7261 11.937 53.8417 12.0719C53.9766 12.2067 54.1018 12.3127 54.2174 12.3898C54.333 12.4668 54.3907 12.5246 54.3907 12.5631C54.333 12.7943 54.3041 13.2663 54.3041 13.9791V15.3662C54.3041 15.9827 54.2848 16.3969 54.2463 16.6088V16.6666C54.2463 17.0519 54.5063 17.5721 55.0265 18.2271C55.5467 18.8628 56.0957 19.1807 56.6737 19.1807C56.9626 19.1807 57.4346 18.7569 58.0896 17.9092C58.7447 17.0615 59.0722 16.2524 59.0722 15.4818C59.0722 15.3855 59.1877 15.3373 59.4189 15.3373H59.5056C59.6405 15.3566 59.9969 15.53 60.5748 15.8575C61.172 16.185 61.5477 16.4354 61.7018 16.6088C61.8752 16.7629 62.0968 17.0904 62.3665 17.5913C62.6555 18.0729 62.7999 18.3427 62.7999 18.4004C62.7999 19.1133 62.2894 20.038 61.2684 21.1746C60.2473 22.3113 59.573 22.8796 59.2455 22.8796C59.207 22.8796 59.1011 22.8025 58.9277 22.6484C58.7543 22.475 58.6098 22.3883 58.4942 22.3883C58.3786 22.3883 58.1089 22.475 57.6851 22.6484C56.4521 23.2071 55.2962 23.4864 54.2174 23.4864C53.8128 23.4864 53.0807 23.1685 52.0211 22.5328C50.9808 21.8971 50.3162 21.348 50.0272 20.8856C49.5071 20.0572 49.0832 19.1903 48.7557 18.2849C48.4282 17.3601 48.2645 16.7726 48.2645 16.5221L48.6979 16.1175C48.9869 15.8478 49.1314 15.5877 49.1314 15.3373C49.1314 15.0869 48.9965 14.846 48.7268 14.6149C48.4764 14.3644 48.3512 14.2103 48.3512 14.1525C48.3704 14.0947 48.3801 13.931 48.3801 13.6612L48.2356 10.8871C48.2356 10.4055 48.3415 9.74081 48.5534 8.89314C48.7654 8.02622 48.8713 7.48679 48.8713 7.27488C48.8713 7.06296 48.8135 6.81252 48.6979 6.52354C48.6016 6.23457 48.5534 6.08044 48.5534 6.06118C48.5534 5.57955 49.2566 4.71263 50.663 3.4604C52.0693 2.20817 53.1771 1.43757 53.9862 1.14859C55.4503 0.724761 57.3094 0.512846 59.5634 0.512846C60.0836 0.512846 60.6423 0.859616 61.2395 1.55316C61.856 2.22743 62.1642 2.6609 62.1642 2.85355C62.1642 2.87281 62.0679 3.0173 61.8752 3.28701C61.6826 3.55672 61.5862 3.79754 61.5862 4.00945C61.5862 4.2021 61.7404 4.41402 62.0486 4.6452C62.3761 4.87638 62.5399 5.04013 62.5399 5.13646C62.5591 5.23278 62.5688 5.37727 62.5688 5.56992C62.5688 6.32126 62.4724 6.85105 62.2798 7.15929C62.0871 7.44826 61.7596 7.83357 61.2973 8.31519C60.8349 8.77755 60.517 9.03763 60.3437 9.09543C59.5345 9.36514 58.6002 9.49999 57.5406 9.49999C57.4635 9.49999 57.3672 9.43256 57.2516 9.29771C57.136 9.16285 57.0782 9.06653 57.0782 9.00873C57.0782 8.95094 57.0879 8.92204 57.1071 8.92204C57.4154 8.59454 57.5695 7.77577 57.5695 6.46575C57.5695 6.25383 57.4828 6.06118 57.3094 5.8878C57.1553 5.69514 57.0782 5.56029 57.0782 5.48323V5.42543L57.1071 5.22315C57.1071 4.91491 57.0493 4.6163 56.9337 4.32733C56.8181 4.03835 56.6351 3.89386 56.3847 3.89386C55.9223 3.89386 55.4503 4.15394 54.9687 4.6741C54.4871 5.17499 54.2463 5.65661 54.2463 6.11898Z" fill="white"/>
</svg>
