<svg width="92" height="78" viewBox="0 0 92 78" fill="none" xmlns="http://www.w3.org/2000/svg">
<g clip-path="url(#clip0_1_1843)">
<path d="M80.7012 20.9296C79.5123 18.73 57.1241 10.7045 57.1241 10.7045L33.0238 10.4905C33.0238 10.4905 11.5036 19.6812 10.5762 20.5967" stroke="white" stroke-width="0.939281" stroke-miterlimit="10"/>
<path d="M28.3037 12.3805L30.6816 4.05777C34.3793 0.360096 46.1382 1.09725 47.4579 1.09725C48.7777 1.09725 58.4439 1.2756 59.4189 3.99832C60.3938 6.72105 61.1667 9.38433 62.0465 12.547C50.944 10.0453 39.4303 9.98847 28.3037 12.3805Z" stroke="white" stroke-width="0.939281" stroke-miterlimit="10"/>
<path d="M78.5135 29.7628C55.6973 21.44 29.766 21.44 12.1931 29.3229" stroke="white" stroke-width="0.939281" stroke-miterlimit="10"/>
<path d="M74.673 77.2863C75.1081 70.457 76.0019 63.6646 77.3481 56.9551" stroke="white" stroke-width="0.939281" stroke-miterlimit="10"/>
<path d="M12.1931 55.5991C13.4891 63.3749 13.5366 70.8892 14.1311 77.2858" stroke="white" stroke-width="0.939281" stroke-miterlimit="10"/>
<path d="M91.5328 30.9875C85.4572 25.3637 79.7739 20.156 79.7739 20.156C79.7739 20.156 75.8741 39.7858 77.396 57.6202C83.8045 62.816 88.7625 66.4542 91.5209 68.3209" stroke="white" stroke-width="0.939281" stroke-miterlimit="10"/>
<path d="M0.327515 66.5245L12.2171 55.5979C15.3322 45.1707 10.8736 20.4878 10.8736 20.4878C9.16151 22.2593 4.72668 26.4326 0.351294 30.5464" stroke="white" stroke-width="0.939281" stroke-miterlimit="10"/>
</g>
<defs>
<clipPath id="clip0_1_1843">
<rect width="91.8355" height="76.7951" fill="white" transform="translate(0.0065918 0.527344)"/>
</clipPath>
</defs>
</svg>
