<svg width="93" height="93" viewBox="0 0 93 93" fill="none" xmlns="http://www.w3.org/2000/svg">
<g clip-path="url(#clip0_1_1828)">
<path d="M67.9316 15.9144H67.9879C67.2394 14.5816 55.07 10.3354 55.07 10.3354L39.0654 9.58691C39.0654 9.58691 26.0133 15.182 25.4554 15.7169H25.5518C23.1193 18.216 12.6891 27.8323 12.6891 27.8323L15.9814 46.5645L25.9467 37.3901C31.2284 69.1882 25.5816 81.3001 25.5816 81.3001C25.5816 81.3001 28.9004 87.1845 47.2479 87.1845C65.5955 87.1845 68.2679 81.3001 68.2679 81.3001C68.2679 74.8452 60.633 64.4759 66.0409 38.2132C72.1078 43.1333 76.0315 45.7449 76.0315 45.5405L80.5177 27.5637C76.6078 23.8891 69.8257 17.6524 67.9316 15.9144ZM25.6264 15.7169V15.9557L25.6161 15.7169H25.6264Z" fill="white"/>
<path d="M36.3081 86.0391C36.3081 85.2413 40.2754 61.0323 37.681 42.4631" stroke="black" stroke-width="0.903776" stroke-miterlimit="10"/>
<path d="M56.4822 86.0402C56.4822 85.2424 51.9479 59.3069 53.6778 42.4631" stroke="black" stroke-width="0.903776" stroke-miterlimit="10"/>
<path opacity="0.35" d="M30.2748 83.9534L29.2061 85.1852C29.2061 85.1852 32.5236 91.0696 50.8735 91.0696C69.2176 91.0696 72.4594 83.019 72.4594 83.019C72.4594 83.019 69.1166 74.4841 66.9918 60.7535C66.031 54.5512 65.3456 43.7915 65.2389 42.5586C63.6869 53.0267 63.7167 63.3387 63.9164 61.4021C63.2047 60.0693 67.8619 80.5475 67.8619 80.5475C67.8619 80.5475 65.9816 86.037 52.1362 86.4755C38.2897 86.9163 32.7509 85.3792 32.7509 85.3792" fill="black"/>
<path d="M67.9877 15.7784C67.2392 14.4456 55.0699 10.2005 55.0699 10.2005L39.0652 9.45093C39.0652 9.45093 26.0131 15.046 25.4552 15.5809" fill="white"/>
<path d="M67.9877 15.7784C67.2392 14.4456 55.0699 10.2005 55.0699 10.2005L39.0652 9.45093C39.0652 9.45093 26.0131 15.046 25.4552 15.5809" stroke="black" stroke-width="0.903776" stroke-miterlimit="10"/>
<path d="M25.9229 37.0974C31.2494 69.0149 25.5831 81.1658 25.5831 81.1658C25.5831 81.1658 28.9018 87.0491 47.2494 87.0491C65.597 87.0491 68.2694 81.1658 68.2694 81.1658C68.2694 74.6742 60.5403 64.2279 66.132 37.6301" stroke="black" stroke-width="0.903776" stroke-miterlimit="10"/>
<path d="M36.2013 10.9583L37.6649 5.88325C39.9114 3.64131 47.0149 4.09016 47.8472 4.09016C48.6794 4.09016 54.511 4.19807 55.0987 5.84996C55.7072 7.55695 56.1376 9.13767 56.6772 11.0272C50.4611 9.47402 42.4209 9.54175 36.2013 10.9583Z" fill="white" stroke="black" stroke-width="0.903776" stroke-miterlimit="10"/>
<path d="M66.6632 21.1385C52.8167 16.0841 37.3723 16.0841 26.7228 20.8722" stroke="black" stroke-width="0.903776" stroke-miterlimit="10"/>
<path d="M12.6891 27.696C12.6891 27.696 23.2972 17.9155 25.6149 15.5151C25.6149 15.5151 28.3195 30.4832 26.4334 36.8061L15.9814 46.4281" stroke="black" stroke-width="0.903776" stroke-miterlimit="10"/>
<path d="M80.5177 27.4281C75.942 23.1267 67.4231 15.3115 67.4231 15.3115C67.4231 15.3115 65.0572 27.218 65.9893 38.0351C72.0872 42.9827 76.0316 45.6104 76.0316 45.4049" stroke="black" stroke-width="0.903776" stroke-miterlimit="10"/>
</g>
<defs>
<clipPath id="clip0_1_1828">
<rect width="91.8355" height="91.8355" fill="white" transform="translate(0.657837 0.835693)"/>
</clipPath>
</defs>
</svg>
