<svg width="92" height="93" viewBox="0 0 92 93" fill="none" xmlns="http://www.w3.org/2000/svg">
<g clip-path="url(#clip0_1_1853)">
<path opacity="0.35" d="M77.0607 35.3695V18.2594C77.0607 18.2594 65.2013 11.0205 56.5263 11.0205C47.8524 11.0205 48.4023 19.2478 38.6287 19.2478C31.4919 19.2478 29.5966 13.4128 29.5966 13.4128C29.5966 13.4128 31.3805 9.37665 26.108 15.8488V73.7614C26.108 73.7614 29.6644 82.4318 38.8927 83.4133C45.025 84.0642 48.9544 83.2572 51.8369 81.6489C52.3328 81.6569 52.815 81.6753 53.343 81.6581C63.6665 81.3217 68.5395 78.2602 67.6165 70.9087C67.6165 70.9087 65.6421 40.5261 66.5191 31.7524C72.1188 31.9716 77.0607 35.3695 77.0607 35.3695Z" fill="black"/>
<path d="M32.5905 68.4956C32.5905 68.4956 35.2319 76.832 48.7317 76.3935C68.9367 75.7345 59.9322 68.0571 61.0319 64.5467C62.1271 61.0374 61.5795 55.114 61.5795 55.114L47.8547 57.5281L32.5905 68.4956Z" fill="#939598" stroke="black" stroke-width="0.934197" stroke-miterlimit="10"/>
<path d="M21.4979 10.5837V68.4963C21.4979 68.4963 25.0531 77.1668 34.2826 78.1482C45.3889 79.3295 49.2805 75.7341 52.7943 71.2365C56.3082 66.7423 59.3514 63.6865 61.0308 68.7156C61.7977 71.0195 62.6781 72.6645 62.6781 72.6645C62.6781 72.6645 63.337 74.2005 63.0064 65.6426C63.0064 65.6426 61.0308 35.2611 61.909 26.4873C67.5087 26.7077 72.4506 30.1079 72.4506 30.1079V12.9955C72.4506 12.9955 60.59 5.7566 51.9139 5.7566C43.2411 5.7566 43.791 13.9839 34.0186 13.9839C26.8806 13.9839 30.7228 5.97701 30.7228 5.97701C30.7228 5.97701 26.767 4.11045 21.4979 10.5837Z" fill="white" stroke="black" stroke-width="0.934197" stroke-miterlimit="10"/>
</g>
<defs>
<clipPath id="clip0_1_1853">
<rect width="91.8355" height="91.8355" fill="white" transform="translate(0.0065918 0.354736)"/>
</clipPath>
</defs>
</svg>
