<svg width="93" height="93" viewBox="0 0 93 93" fill="none" xmlns="http://www.w3.org/2000/svg">
<g clip-path="url(#clip0_1_1866)">
<path opacity="0.35" d="M15.2437 84.1276C20.1489 88.6172 34.7255 91.9244 48.0508 91.5364C63.1957 91.0933 80.5503 88.1683 81.8876 78.583C81.8876 78.583 78.2337 72.4323 72.2908 71.9754C72.2908 68.3192 71.7834 50.0451 71.7834 50.0451L72.0704 42.8705L71.2095 25.0773C73.1885 23.189 76.1915 18.8968 75.1033 16.6285C69.6827 19.3342 62.5287 20.2766 48.0531 20.2766C33.612 20.2766 20.8583 18.332 15.4148 15.6355L15.3264 15.8984C14.6571 17.7535 16.0106 17.0612 16.0106 17.0612C16.7992 18.3837 18.1331 22.2431 19.94 23.3692V65.4012V68.6166V81.1728C19.6254 81.3197 19.3212 81.4701 19.0251 81.6216C19.0251 81.6216 13.4839 77.0597 11.4819 78.583L15.2437 84.1276Z" fill="black"/>
<path d="M79.4908 73.1922C74.5845 77.6819 60.0148 80.6011 46.6826 80.6011C33.3492 80.6011 18.7795 77.6819 13.8744 73.1922L14.43 72.7032C15.7363 71.2534 17.6534 70.6863 17.6534 70.6863C17.9496 70.5336 18.2526 70.3844 18.5683 70.2374V36.4925V31.8663V17.9176C16.7626 16.7938 15.4275 15.5494 14.64 14.227C14.64 14.227 12.8653 12.4982 13.9524 10.2298L14.0052 10.1655C19.4247 12.8712 32.2047 14.8262 46.6815 14.8262C61.1226 14.8262 73.8763 12.8816 79.3187 10.185L79.4082 10.4491C80.0763 12.3041 78.7229 14.2281 78.7229 14.2281C77.9342 15.5505 76.5992 16.7949 74.7923 17.9199V54.4658V57.6824V70.2386C75.1068 70.3855 75.4111 70.5348 75.7084 70.6874C75.7084 70.6874 76.947 71.1168 78.9479 72.6401L79.4908 73.1922Z" fill="white"/>
<path d="M79.491 72.9819C74.5881 77.4704 60.0149 80.3896 46.6827 80.3896C33.3516 80.3896 18.7808 77.4704 13.8756 72.9819C12.3305 74.3721 11.4799 75.8851 11.4799 77.4704C11.4799 81.9577 27.2411 87.0569 46.6827 87.0569C66.1266 87.0569 81.8867 80.9865 81.8867 77.4704C81.8867 75.8862 81.0361 74.3721 79.491 72.9819Z" fill="white" stroke="black" stroke-width="1.18789" stroke-miterlimit="10"/>
<path d="M45.8885 5.06567C20.2973 5.06567 14.9479 7.01374 14.0089 9.9628C19.4295 12.6685 32.2096 14.6235 46.684 14.6235C61.1251 14.6235 73.8788 12.6788 79.3223 9.98232C78.2042 7.02177 72.065 5.06567 45.8885 5.06567ZM46.684 11.2462C42.3402 11.2462 38.8194 10.5804 38.8194 9.76191C38.8194 8.94113 42.3402 8.27647 46.684 8.27647C51.029 8.27647 54.5486 8.94113 54.5486 9.76191C54.5486 10.5815 51.0278 11.2462 46.684 11.2462Z" fill="white" stroke="black" stroke-width="1.18789" stroke-miterlimit="10"/>
<path d="M80.5492 73.9742C78.5185 71.5969 75.7107 70.473 75.7107 70.473C75.4133 70.3215 75.1103 70.1711 74.7946 70.0253V57.468C50.2894 54.5671 30.6229 45.4157 18.5694 29.7681V70.0265C18.2549 70.1723 17.9519 70.3226 17.6557 70.4742C17.6557 70.4742 14.562 72.1628 13.2556 73.6126" stroke="black" stroke-width="1.18789" stroke-miterlimit="10"/>
<path d="M74.7948 63.1847V17.7077C76.6017 16.5828 77.9367 15.3384 78.7254 14.016C78.7254 14.016 80.2889 12.3032 79.3223 9.9729" stroke="black" stroke-width="1.18789" stroke-miterlimit="10"/>
<path d="M14.6111 9.01367C12.3233 11.7561 14.6421 14.0141 14.6421 14.0141C15.4296 15.3354 16.7658 16.5798 18.5704 17.7048V31.6534" stroke="black" stroke-width="1.18789" stroke-miterlimit="10"/>
<path d="M75.0676 17.6736C66.3364 20.8235 50.8873 21.0439 46.8374 21.0439" stroke="black" stroke-width="1.00709" stroke-miterlimit="10"/>
<path d="M46.8377 21.0439C42.7877 21.0439 27.3387 20.8235 18.6074 17.6736" stroke="black" stroke-width="1.00709" stroke-miterlimit="10"/>
<path d="M46.8374 74.5124C62.9522 74.5124 71.9269 71.4095 75.1009 69.5613" stroke="black" stroke-width="1.0972" stroke-miterlimit="10"/>
<path d="M18.5708 69.561C21.746 71.4092 30.7218 74.5121 46.8378 74.5121" stroke="black" stroke-width="1.0972" stroke-miterlimit="10"/>
</g>
<defs>
<clipPath id="clip0_1_1866">
<rect width="91.8355" height="91.8355" fill="white" transform="translate(0.680908 0.875732)"/>
</clipPath>
</defs>
</svg>
