<svg width="93" height="93" viewBox="0 0 93 93" fill="none" xmlns="http://www.w3.org/2000/svg">
<g clip-path="url(#clip0_1_1738)">
<path opacity="0.35" d="M86.2666 45.0251C86.2666 43.7004 80.5384 27.6257 77.9946 22.7998C77.4539 21.7747 76.4448 20.9654 75.5873 20.5016C75.0788 20.2272 74.6988 20.0608 74.6988 20.0608C74.6988 20.0608 79.0576 24.5297 74.0697 28.0723C65.3063 34.2964 49.9996 37.9182 47.589 38.4612H47.5844C47.574 38.4635 47.5637 38.4658 47.5522 38.4704C47.3651 38.5128 47.2538 38.5358 47.2538 38.5358C47.2595 38.5392 47.2629 38.545 47.2675 38.5484C45.952 38.8974 44.8086 39.3772 43.8122 39.9512L40.6462 38.2867L35.5355 47.0444C36.4665 45.3305 37.2207 43.9679 37.6765 43.1965C40.3282 38.6931 40.2559 38.1076 40.2559 38.1076C28.2955 33.8223 29.4124 34.0198 21.5008 30.6138C13.8107 27.3032 15.6669 20.6818 15.6669 20.6818C12.4768 22.7883 7.71168 39.4874 5.59028 46.6391C3.46888 53.7897 22.2963 72.0672 22.2963 72.0672C22.2963 72.0672 28.579 60.0391 33.2339 51.3239L37.1473 52.4787C37.1725 52.7221 37.2483 52.9643 37.4446 52.9643C44.0005 54.4475 53.9336 53.0929 56.241 52.7439L67.4427 71.7791C71.4191 68.3341 86.7981 49.5297 86.2666 45.0251Z" fill="black"/>
<path d="M15.5188 17.7782C21.386 13.9039 30.6338 13.54 44.9544 13.54C59.2739 13.54 75.0443 14.5617 77.4171 19.6827C77.4171 19.6827 79.5603 38.0418 47.341 38.571C32.0951 38.8224 19.8959 33.6704 17.3762 29.3002L14.1941 21.7513L15.5188 17.7782Z" fill="url(#paint0_linear_1_1738)" stroke="black" stroke-width="0.60898" stroke-miterlimit="10"/>
<path d="M30.2002 31.318C30.2002 31.318 39.2368 30.7808 44.6138 30.7808C49.9919 30.7808 62.2577 31.1871 62.2577 31.1871L61.3933 32.2857L47.5181 37.3367L40.286 38.2022L34.932 35.4024L30.2002 31.318Z" fill="#939598" stroke="black" stroke-width="0.60898" stroke-miterlimit="10"/>
<path d="M43.8951 37.166L37.2978 49.6625L32.9219 48.3699L40.5006 35.3821L43.8951 37.166Z" fill="white" stroke="black" stroke-width="0.60898" stroke-miterlimit="10"/>
<path d="M56.59 49.7623C56.59 49.7623 44.7558 51.7483 37.2976 50.0608C36.8993 50.0608 36.9992 49.0678 36.9992 49.0678C36.9992 49.0678 36.9005 38.121 47.4397 35.5588L58.8342 40.0817L56.59 49.7623Z" fill="white" stroke="black" stroke-width="0.60898" stroke-miterlimit="10"/>
<path d="M45.6007 47.3889C47.2484 47.3889 48.5842 46.0531 48.5842 44.4054C48.5842 42.7576 47.2484 41.4219 45.6007 41.4219C43.953 41.4219 42.6172 42.7576 42.6172 44.4054C42.6172 46.0531 43.953 47.3889 45.6007 47.3889Z" stroke="black" stroke-width="0.60898" stroke-miterlimit="10"/>
<path d="M45.6007 45.7469C46.3419 45.7469 46.9427 45.1461 46.9427 44.4049C46.9427 43.6638 46.3419 43.063 45.6007 43.063C44.8596 43.063 44.2588 43.6638 44.2588 44.4049C44.2588 45.1461 44.8596 45.7469 45.6007 45.7469Z" stroke="black" stroke-width="0.60898" stroke-miterlimit="10"/>
<path d="M77.849 19.8977C80.3917 24.7237 86.1222 40.7983 86.1222 42.1231C86.6526 46.6253 71.2713 65.4321 67.2948 68.8759L50.1904 39.8031C50.1904 39.8031 48.1023 36.427 47.1071 35.6314C47.1071 35.6314 64.3939 31.9385 73.9219 25.1679C78.912 21.6242 74.5533 17.1553 74.5533 17.1553C74.5533 17.1553 74.9332 17.324 75.4395 17.5972C76.3027 18.0621 77.3095 18.8726 77.849 19.8977Z" fill="white" stroke="black" stroke-width="0.60898" stroke-miterlimit="10"/>
<path d="M40.1076 35.2043C40.1076 35.2043 40.1799 35.7897 37.5281 40.2931C34.8752 44.7954 22.148 69.1662 22.148 69.1662C22.148 69.1662 3.32056 50.8875 5.44196 43.7358C7.56336 36.5841 12.3285 19.885 15.5186 17.7773C15.5186 17.7773 13.6624 24.3987 21.3536 27.7094C29.2641 31.1165 28.1483 30.919 40.1076 35.2043Z" fill="white" stroke="black" stroke-width="0.60898" stroke-miterlimit="10"/>
<path d="M6.00354 41.4661C6.00354 41.4661 7.7576 51.5496 21.2942 64.1162C28.7546 50.0584 35.1682 35.8767 36.3563 34.1824" stroke="#939598" stroke-width="0.472464" stroke-miterlimit="10"/>
<path d="M50.77 34.9214L68.306 64.2399C68.306 64.2399 76.267 55.6659 79.2505 51.1958C82.2363 46.7234 84.5988 42.375 84.8467 38.3997" stroke="#939598" stroke-width="0.472464" stroke-miterlimit="10"/>
<path d="M22.5377 28.2104C22.5377 28.2104 26.0642 26.345 46.0878 26.345C66.1114 26.345 68.8045 28.3332 68.8045 28.3332" stroke="#939598" stroke-width="0.472464" stroke-miterlimit="10"/>
</g>
<defs>
<linearGradient id="paint0_linear_1_1738" x1="14.1941" y1="26.0599" x2="77.4465" y2="26.0599" gradientUnits="userSpaceOnUse">
<stop stop-color="#D5D7D8"/>
<stop offset="0.1822" stop-color="white"/>
<stop offset="0.8283" stop-color="#EFF0F0"/>
<stop offset="1" stop-color="#C2C2C2"/>
</linearGradient>
<clipPath id="clip0_1_1738">
<rect width="91.8355" height="91.8355" fill="white" transform="translate(0.657837 0.914551)"/>
</clipPath>
</defs>
</svg>
