<svg width="93" height="93" viewBox="0 0 93 93" fill="none" xmlns="http://www.w3.org/2000/svg">
<g clip-path="url(#clip0_1_1882)">
<path d="M79.5005 18.3736C78.8335 17.8753 64.8653 10.5583 64.8653 10.5583L27.6168 11.7212L15.9767 18.8718C15.9767 18.8718 18.8465 28.5352 19.3252 33.8145C19.8062 39.0939 18.3656 53.9724 18.3656 57.5713C18.3656 61.1712 57.2407 81.328 57.2407 81.328C57.2407 81.328 73.0777 77.9679 74.9982 71.7288C76.9176 65.4898 68.2793 43.6524 79.3168 19.1771" fill="white"/>
<path d="M51.6917 52.8442C51.6917 52.8442 55.6831 45.5272 55.5167 41.2029C55.3502 36.8786 57.1777 32.5555 61.502 29.3975C65.8263 26.2372 62.7154 15.8265 62.7154 15.8265C62.7154 15.8265 61.7879 11.8259 61.4561 11.3277C61.1221 10.8283 46.7027 8.27759 46.2045 8.27759C45.7052 8.27759 30.4995 11.3277 30.4995 11.3277L32.839 21.4066L41.2982 31.8449C41.2982 31.8449 42.9065 40.7139 47.527 41.0124C52.625 41.5519 50.1936 41.3694 50.1936 41.8687C50.1936 42.3669 51.5253 51.1797 51.5253 51.1797L51.6917 52.8442Z" fill="white" stroke="black" stroke-width="0.97185" stroke-miterlimit="10"/>
<path d="M32.1387 12.2194C32.1387 12.2194 41.5357 12.8841 46.2744 12.4685C51.0143 12.053 58.9948 9.4747 59.4942 9.14295C59.9935 8.81004 59.0798 5.06889 57.1661 4.23663C55.2525 3.40667 45.7751 3.65577 39.955 4.15398C34.1349 4.65334 33.1362 4.65334 32.0135 5.40065C30.892 6.15026 30.9758 10.307 32.1387 12.2194Z" fill="#6D6F71" stroke="black" stroke-width="0.97185" stroke-miterlimit="10"/>
<path d="M31.9733 10.8068C31.9733 10.8068 40.5381 11.6391 45.9403 11.1397C51.346 10.6403 55.5027 9.06077 59.1623 7.4812" stroke="#939598" stroke-width="0.738587" stroke-miterlimit="10"/>
<path d="M45.9716 35.6721C46.0416 36.1508 46.3286 36.587 46.4445 37.0485C46.5674 37.5352 46.658 38.0667 46.6764 38.573C46.6994 39.1504 46.813 39.6532 46.9347 40.1985C47.0001 40.4981 46.9622 40.6358 47.255 40.7724C47.3606 40.8206 47.4547 40.8046 47.5707 40.8746C47.6797 40.9389 47.7348 41.0388 47.8347 41.1111C48.5854 41.6575 49.7334 41.9583 50.3074 42.7113C50.9743 43.5837 51.872 44.3001 52.3989 45.2586C52.5791 45.5846 52.8271 45.8372 53.0062 46.1483C53.1921 46.4685 53.3655 46.8979 53.4791 47.1745C53.4791 44.8293 52.3025 42.8674 50.9192 41.0204C50.1845 40.0412 49.3109 39.3226 48.4592 38.4731C47.9885 38.0024 47.6062 37.4836 47.1459 37.0175C46.9232 36.7925 46.7327 36.5859 46.5191 36.3643C46.3458 36.1818 46.0198 35.9717 45.9371 35.7341" fill="white"/>
<path d="M27.7319 11.7212L16.0929 18.8717" stroke="black" stroke-width="0.97185" stroke-miterlimit="10"/>
<path d="M27.5666 17.209L20.9143 21.1992" stroke="black" stroke-width="0.97185" stroke-miterlimit="10"/>
<path d="M64.9818 10.5583C64.9818 10.5583 78.95 17.8753 79.6158 18.3736" stroke="black" stroke-width="0.97185" stroke-miterlimit="10"/>
<path d="M68.973 19.2036L77.1211 25.0237" stroke="black" stroke-width="0.97185" stroke-miterlimit="10"/>
<path d="M58.0169 33.5369C58.0169 33.5369 59.2361 35.6836 58.0365 39.5223C56.8839 43.2095 56.7863 42.3428 55.612 47.644C54.7993 51.3037 54.0267 54.0679 53.6559 57.0434C54.1472 51.2428 53.9084 46.5592 52.9763 44.4803C52.9763 44.4803 53.346 38.8485 53.2289 37.4124C55.4846 35.6595 56.4856 34.9076 57.2593 32.8022C58.0376 33.0709 58.0169 33.5369 58.0169 33.5369Z" fill="#6D6F71" stroke="black" stroke-width="0.97185" stroke-miterlimit="10"/>
<path d="M35.1784 18.7051C38.9161 26.875 37.0759 24.9132 38.7783 26.6844C40.6001 28.5808 41.8387 29.6243 43.3988 31.2441C43.4057 31.2521 46.4512 35.4352 46.4581 35.4433C47.5337 36.7129 53.9358 42.5743 53.7693 48.6848C53.6867 45.5681 50.0936 42.0198 47.3649 41.0027C44.7201 40.0167 43.0969 38.8618 41.298 30.5829C37.2711 29.5267 32.1581 26.3366 35.1784 18.7051Z" stroke="black" stroke-width="0.97185" stroke-miterlimit="10"/>
<path d="M32.0148 5.40137C30.6189 6.53668 27.8994 10.1412 26.0283 12.5106C24.1583 14.8799 24.4074 16.626 28.897 34.2113C31.6417 34.3353 43.3645 31.2186 43.3645 31.2186C33.5117 17.7487 29.8945 7.14739 32.0148 5.40137Z" fill="white" stroke="black" stroke-width="0.97185" stroke-miterlimit="10"/>
<path d="M57.2086 33.0902L72.6737 30.3466C72.6737 30.3466 69.0577 15.2546 65.9387 11.3883C62.4467 8.5196 60.4516 6.8987 57.9571 4.65332C61.0749 7.64716 59.454 21.6165 57.2086 33.0902Z" fill="white" stroke="black" stroke-width="0.97185" stroke-miterlimit="10"/>
<path d="M49.2189 69.0925L47.9987 41.3547C47.9987 41.3547 52.6937 43.8894 53.5547 47.5881C54.4168 51.2867 53.8141 69.0914 53.8141 69.0914" fill="white"/>
<path d="M49.2189 69.0925L47.9987 41.3547C47.9987 41.3547 52.6937 43.8894 53.5547 47.5881C54.4168 51.2867 53.8141 69.0914 53.8141 69.0914" stroke="black" stroke-width="0.97185" stroke-miterlimit="10"/>
<path d="M26.0284 12.5112C26.0697 12.8855 25.8206 16.544 26.6528 19.6204C27.484 22.6969 29.8958 32.0091 29.8108 32.5084C29.7282 33.0066 41.3695 30.1792 42.2832 29.8475" stroke="#939598" stroke-width="0.738587" stroke-miterlimit="10"/>
<path d="M57.6646 31.2599C57.6646 31.2599 68.5425 29.7239 70.9692 29.2648C69.555 22.5309 66.4796 13.6332 65.5647 11.3052" stroke="#939598" stroke-width="0.738587" stroke-miterlimit="10"/>
<path d="M47.1181 40.9115C47.0355 40.7875 46.1584 37.7236 46.3984 35.624" stroke="black" stroke-width="0.97185" stroke-miterlimit="10"/>
<path d="M33.5218 13.9081C33.5218 13.9081 45.1643 16.8733 59.6215 11.2897C59.5756 9.98446 59.5274 9.01904 59.5274 9.01904C59.5274 9.01904 54.6429 11.4768 46.621 12.1403C38.5981 12.805 33.9122 11.9761 32.6552 11.7328C33.0879 13.4237 33.5218 13.9081 33.5218 13.9081Z" fill="white" stroke="black" stroke-width="0.97185" stroke-miterlimit="10"/>
<path d="M59.7391 72.6696C59.7666 72.6788 59.7976 72.6845 59.8229 72.6937C59.7873 72.6788 59.7448 72.6627 59.7047 72.6467C59.6151 72.5847 59.5061 72.5433 59.389 72.5261C55.5365 71.0453 47.0681 67.8345 47.0681 67.8345C47.0681 67.8345 46.524 67.5509 45.6963 67.3787C45.0787 67.0447 42.6829 69.9765 39.8533 69.0915C36.3337 67.9906 33.5545 67.0217 33.5545 67.0217L7.09668 67.8207C7.09668 67.8207 20.461 76.1421 23.3011 77.1248C25.9953 78.0558 30.0533 80.952 31.4377 82.162C31.5226 82.2756 31.6282 82.3502 31.7017 82.3939C31.8085 82.4822 31.9129 82.5408 32.0174 82.5741L45.4747 90.5408C45.4747 90.5408 45.8409 90.6166 47.1175 89.3837C51.591 85.328 58.7863 75.8701 59.6553 74.3697C60.1524 73.5088 60.072 72.929 59.7391 72.6696Z" fill="#D1D3D4"/>
<path d="M55.7986 83.3499C55.8135 84.4875 55.7263 85.8605 55.7182 85.8674C52.0253 89.5316 48.0947 91.0515 45.1548 89.201C43.4077 87.9681 43.2894 86.1486 43.2894 86.1486L44.8667 78.5355L47.8778 75.5669L50.6581 73.0403L56.1831 71.2334C56.1831 71.2334 57.6582 71.2058 58.4503 71.2139C63.1661 73.3146 61.8241 78.6985 57.9682 83.3442C57.7926 83.5543 53.2283 83.0871 52.7267 82.9218L45.9676 79.1462" fill="#6D6F71"/>
<path d="M55.7986 83.3499C55.8135 84.4875 55.7263 85.8605 55.7182 85.8674C52.0253 89.5316 48.0947 91.0515 45.1548 89.201C43.4077 87.9681 43.2894 86.1486 43.2894 86.1486L44.8667 78.5355L47.8778 75.5669L50.6581 73.0403L56.1831 71.2334C56.1831 71.2334 57.6582 71.2058 58.4503 71.2139C63.1661 73.3146 61.8241 78.6985 57.9682 83.3442C57.7926 83.5543 53.2283 83.0871 52.7267 82.9218L45.9676 79.1462" stroke="black" stroke-width="0.97185" stroke-miterlimit="10"/>
<path d="M44.1066 88.1359C46.7813 90.4318 51.0666 88.8591 54.6585 85.39L54.678 83.3582" stroke="#939598" stroke-width="0.748345" stroke-miterlimit="10"/>
<path d="M26.0241 57.0449C26.0241 57.0449 45.2923 67.5325 48.6638 69.0524C52.0307 70.5666 55.8832 71.4034 55.8832 71.4034L49.0748 75.5085L41.7245 84.9549C41.7245 84.9549 40.6638 87.4161 39.517 86.3416C38.3691 85.2671 34.0183 82.1057 31.1783 81.1253C28.3395 80.145 6.55493 66.4225 6.55493 66.4225" fill="white"/>
<path d="M26.0241 57.0449C26.0241 57.0449 45.2923 67.5325 48.6638 69.0524C52.0307 70.5666 55.8832 71.4034 55.8832 71.4034L49.0748 75.5085L41.7245 84.9549C41.7245 84.9549 40.6638 87.4161 39.517 86.3416C38.3691 85.2671 34.0183 82.1057 31.1783 81.1253C28.3395 80.145 6.55493 66.4225 6.55493 66.4225" stroke="black" stroke-width="0.97185" stroke-miterlimit="10"/>
<path d="M57.2261 71.1376C57.2261 71.1376 57.8862 70.9218 58.3936 71.4613C61.7192 74.3943 60.3887 78.8001 57.5188 82.5103L53.0384 82.1613L46.6088 78.4546" stroke="#939598" stroke-width="0.748345" stroke-miterlimit="10"/>
<path d="M44.0592 86.0682C44.0191 88.0507 45.1475 89.3651 45.1475 89.3651C45.1475 89.3651 33.8632 82.5692 31.464 81.2629C30.3344 75.103 38.7305 63.9243 47.6293 66.1743C49.9493 67.2499 58.5406 71.3297 58.6909 71.4296C50.0033 72.0931 44.2188 78.5044 44.0592 86.0682Z" fill="white" stroke="black" stroke-width="0.97185" stroke-miterlimit="10"/>
<mask id="mask0_1_1882" style="mask-type:luminance" maskUnits="userSpaceOnUse" x="31" y="70" width="23" height="19">
<path d="M31.6791 81.2014L44.2629 88.6814L47.4323 81.7467L49.579 77.9699L53.6553 73.4023L49.2243 73.6227L42.6282 74.2058C42.6282 74.2058 38.002 69.5796 36.6899 70.3637C35.6326 70.995 33.2529 75.4364 33.2529 75.4364C33.2529 75.4364 31.5919 80.7835 31.6791 81.2014Z" fill="white"/>
</mask>
<g mask="url(#mask0_1_1882)">
<path d="M32.4236 81.852C33.001 74.6211 38.0141 70.6389 38.0141 70.6389" stroke="#939598" stroke-width="0.748345" stroke-miterlimit="10"/>
<path d="M43.3347 88.1677C43.3347 88.1677 40.5463 82.3316 46.557 75.7412" stroke="#939598" stroke-width="0.738587" stroke-miterlimit="10"/>
</g>
<mask id="mask1_1_1882" style="mask-type:luminance" maskUnits="userSpaceOnUse" x="35" y="66" width="24" height="11">
<path d="M58.0189 71.3152L47.2523 66.123L42.7661 66.5535L38.0733 69.0446L35.8348 71.1774L39.8228 72.9017L45.9609 75.7922L49.0982 76.0562L52.0805 75.1023L54.9194 72.5401L58.0189 71.3152Z" fill="white"/>
</mask>
<g mask="url(#mask1_1_1882)">
<path d="M46.25 76.1327C50.2334 71.3343 56.3393 70.1657 58.5571 70.4871" stroke="#939598" stroke-width="0.738587" stroke-miterlimit="10"/>
</g>
<mask id="mask2_1_1882" style="mask-type:luminance" maskUnits="userSpaceOnUse" x="35" y="66" width="24" height="11">
<path d="M58.0189 71.3152L47.2523 66.123L42.7661 66.5535L38.0733 69.0446L35.8348 71.1774L39.8228 72.9017L45.9609 75.7922L49.0982 76.0562L52.0805 75.1023L54.9194 72.5401L58.0189 71.3152Z" fill="white"/>
</mask>
<g mask="url(#mask2_1_1882)">
<path d="M48.5025 66.5066C41.9145 66.2575 37.8783 70.7471 37.8783 70.7471" stroke="#939598" stroke-width="0.748345" stroke-miterlimit="10"/>
</g>
</g>
<defs>
<clipPath id="clip0_1_1882">
<rect width="91.8355" height="91.8355" fill="white" transform="translate(0.680908 0.308594)"/>
</clipPath>
</defs>
</svg>
