<svg width="92" height="93" viewBox="0 0 92 93" fill="none" xmlns="http://www.w3.org/2000/svg">
<g clip-path="url(#clip0_1_1755)">
<path opacity="0.35" d="M88.072 48.1687C88.1271 48.1974 88.1833 48.2226 88.2361 48.2525C88.165 48.2077 88.0881 48.1561 88.0157 48.109C87.8573 47.9437 87.661 47.8151 87.428 47.729C80.2889 43.1097 64.5747 33.0445 64.5747 33.0445C64.5747 33.0445 63.599 32.241 61.9999 31.5407C60.8978 30.6086 57.5688 27.9419 52.2332 24.9595C45.5992 21.2471 38.4337 17.0066 38.4337 17.0066L3.66479 34.2372C3.66479 34.2372 7.38069 38.4789 12.6876 41.661C17.7283 44.6812 24.6791 52.2404 26.9589 55.2653C27.0817 55.5304 27.2608 55.7267 27.3894 55.845C27.5673 56.0677 27.7556 56.2318 27.9507 56.3443L51.7017 78.1117C51.7017 78.1117 52.4111 78.4227 55.5071 76.4781C66.2553 70.2092 84.7889 54.2092 87.1766 51.5574C88.553 50.0318 88.6345 48.8322 88.072 48.1687Z" fill="black"/>
<path d="M3.50842 31.726C3.50842 31.726 7.22432 35.9677 12.5313 39.1498C17.8382 42.3319 25.2711 50.5488 27.1285 53.2006C28.9859 55.8512 32.1714 51.3455 32.1714 51.3455L51.0149 35.4385L62.2533 29.3853C62.2533 29.3853 58.7119 26.1585 52.0768 22.4483C45.4428 18.737 38.2762 14.4954 38.2762 14.4954" fill="white"/>
<path d="M3.50842 31.726C3.50842 31.726 7.22432 35.9677 12.5313 39.1498C17.8382 42.3319 25.2711 50.5488 27.1285 53.2006C28.9859 55.8512 32.1714 51.3455 32.1714 51.3455L51.0149 35.4385L62.2533 29.3853C62.2533 29.3853 58.7119 26.1585 52.0768 22.4483C45.4428 18.737 38.2762 14.4954 38.2762 14.4954" stroke="black" stroke-width="0.716202" stroke-miterlimit="10"/>
<path d="M39.3384 35.9698L20.4949 23.2449" stroke="#939598" stroke-width="0.716202" stroke-miterlimit="10"/>
<path d="M45.9726 31.7274L27.9258 19.0024" stroke="#939598" stroke-width="0.716202" stroke-miterlimit="10"/>
<path d="M52.6072 30.4042L42.7877 22.9805" stroke="#939598" stroke-width="0.716202" stroke-miterlimit="10"/>
<path d="M51.5456 75.603C51.5456 75.603 52.2527 75.913 55.3487 73.9695C66.0992 67.6994 84.6328 51.7005 87.0205 49.0488C89.4094 46.397 87.9056 44.7187 85.8714 45.1607C84.2781 44.8071 82.6859 44.8071 82.6859 44.8071L71.5393 49.136L65.1694 50.4619L61.8966 54.9687L49.0695 68.666C49.0695 68.666 50.129 74.4103 51.5456 75.603Z" fill="url(#paint0_linear_1_1755)" stroke="black" stroke-width="0.716202" stroke-miterlimit="10"/>
<path d="M51.7235 72.9068C51.7235 72.9068 54.7311 71.4937 58.9774 68.5779C63.2236 65.6621 74.1061 57.266 77.3789 54.5282C80.6517 51.7881 87.0205 46.7681 85.8714 45.161C84.9863 43.9235 83.6582 44.0119 83.6582 44.0119" stroke="#939598" stroke-width="0.716202" stroke-miterlimit="10"/>
<path d="M27.3953 53.4652L51.5469 75.601C51.5469 75.601 50.3519 74.4095 52.7408 71.0942C55.1285 67.7801 61.4824 60.385 66.81 55.729C69.9737 52.4034 67.206 50.4152 67.206 50.4152L46.6371 32.3901C46.6371 32.3901 31.6427 40.4751 26.8638 51.3461C26.2003 52.6709 27.3953 53.4652 27.3953 53.4652Z" fill="white" stroke="black" stroke-width="0.716202" stroke-miterlimit="10"/>
<mask id="mask0_1_1755" style="mask-type:luminance" maskUnits="userSpaceOnUse" x="27" y="36" width="42" height="38">
<path d="M27.8555 53.4309L50.0544 73.8482L59.3964 61.2243L65.3312 54.5283L68.5179 50.2476L60.604 49.149L52.9116 43.9902C52.9116 43.9902 45.3295 36.7444 42.8017 36.9636C40.2739 37.1829 33.2393 44.8672 33.2393 44.8672C33.2393 44.8672 27.8555 52.5527 27.8555 53.4309Z" fill="white"/>
</mask>
<g mask="url(#mask0_1_1755)">
<path d="M29.0764 55.0619C29.0764 55.0619 29.2543 53.2057 31.4653 49.7596C34.8253 44.0153 42.9654 38.4478 42.9654 38.4478" stroke="#939598" stroke-width="0.716202" stroke-miterlimit="10"/>
<path d="M48.8047 73.2652C48.8047 73.2652 48.45 71.7625 50.6621 68.5816C54.0244 63.8096 58.8894 58.5072 63.2241 55.1495C64.3731 54.2656 64.6395 53.47 64.4615 52.4105C64.2859 51.3498 64.0207 50.2007 64.0207 50.2007" stroke="#939598" stroke-width="0.716202" stroke-miterlimit="10"/>
</g>
<path d="M39.072 36.1463L58.0475 49.8872C58.0475 49.8872 61.8977 52.6526 65.9764 52.5711C70.055 52.4873 72.3796 51.2107 73.5723 50.5484C74.7673 49.8872 83.8327 43.2233 88.0789 45.7419C81.399 41.413 64.4175 30.534 64.4175 30.534C64.4175 30.534 61.3651 28.0154 57.2072 28.0154C53.0505 28.0165 46.637 30.8875 39.072 36.1463Z" fill="white" stroke="black" stroke-width="0.716202" stroke-miterlimit="10"/>
<mask id="mask1_1_1755" style="mask-type:luminance" maskUnits="userSpaceOnUse" x="42" y="28" width="44" height="23">
<path d="M85.4406 44.4241L62.2522 29.3849L59.1745 28.8362L46.8663 33.7758L42.9093 36.5205L47.9637 40.8012L58.9553 48.5946L65.1691 50.46L71.593 49.8034L78.4072 45.851L85.4406 44.4241Z" fill="white"/>
</mask>
<g mask="url(#mask1_1_1755)">
<path d="M63.9309 30.2245C63.9309 30.2245 60.6581 29.0766 56.9422 30.4013C52.4365 32.0084 44.3802 37.1168 44.3802 37.1168L59.7742 47.9867C59.7742 47.9867 62.4707 49.8486 65.3096 50.0748C68.5571 50.1586 70.7428 48.9578 72.1582 47.9867C73.5736 47.0132 80.7414 42.154 85.0749 43.745" stroke="#939598" stroke-width="0.716202" stroke-miterlimit="10"/>
</g>
<path d="M61.0446 37.2031C61.1502 37.3937 61.1249 37.6095 60.986 37.6887L56.7822 40.0316C56.6445 40.1097 56.4459 40.0179 56.338 39.8273C56.2324 39.6368 56.2588 39.4198 56.3977 39.3417L60.5992 36.9988C60.7381 36.9207 60.9378 37.0126 61.0446 37.2031Z" stroke="black" stroke-width="0.716202" stroke-miterlimit="10"/>
<path d="M56.8539 42.0228C58.442 42.0228 59.7295 41.2118 59.7295 40.2114C59.7295 39.2109 58.442 38.3999 56.8539 38.3999C55.2657 38.3999 53.9783 39.2109 53.9783 40.2114C53.9783 41.2118 55.2657 42.0228 56.8539 42.0228Z" fill="white" stroke="black" stroke-width="0.716202" stroke-miterlimit="10"/>
<path d="M56.8539 41.5816C58.442 41.5816 59.7295 40.7706 59.7295 39.7702C59.7295 38.7698 58.442 37.9587 56.8539 37.9587C55.2657 37.9587 53.9783 38.7698 53.9783 39.7702C53.9783 40.7706 55.2657 41.5816 56.8539 41.5816Z" fill="white" stroke="black" stroke-width="0.716202" stroke-miterlimit="10"/>
<path d="M56.8539 41.14C58.442 41.14 59.7295 40.329 59.7295 39.3285C59.7295 38.3281 58.442 37.5171 56.8539 37.5171C55.2657 37.5171 53.9783 38.3281 53.9783 39.3285C53.9783 40.329 55.2657 41.14 56.8539 41.14Z" fill="white" stroke="black" stroke-width="0.716202" stroke-miterlimit="10"/>
<path d="M56.8553 40.1218C57.7346 40.1218 58.4475 39.7466 58.4475 39.2838C58.4475 38.821 57.7346 38.4458 56.8553 38.4458C55.9759 38.4458 55.2631 38.821 55.2631 39.2838C55.2631 39.7466 55.9759 40.1218 56.8553 40.1218Z" stroke="black" stroke-width="0.716202" stroke-miterlimit="10"/>
</g>
<defs>
<linearGradient id="paint0_linear_1_1755" x1="49.0697" y1="60.2141" x2="88.2444" y2="60.2141" gradientUnits="userSpaceOnUse">
<stop stop-color="#D5D7D8"/>
<stop offset="0.1822" stop-color="white"/>
<stop offset="0.8283" stop-color="#EFF0F0"/>
<stop offset="1" stop-color="#C2C2C2"/>
</linearGradient>
<clipPath id="clip0_1_1755">
<rect width="91.8355" height="91.8355" fill="white" transform="translate(0.0065918 0.395752)"/>
</clipPath>
</defs>
</svg>
