<svg width="79" height="80" viewBox="0 0 79 80" fill="none" xmlns="http://www.w3.org/2000/svg">
<g clip-path="url(#clip0_1_1786)">
<path opacity="0.35" d="M65.6499 22.2742C65.6499 21.4231 61.9636 11.0833 60.3273 7.97623C59.9795 7.31817 59.3313 6.79705 58.7787 6.49856C58.4526 6.32321 58.2083 6.21484 58.2083 6.21484C58.2083 6.21484 61.0119 9.08941 57.8034 11.368C52.1656 15.3725 42.3164 17.7013 40.7668 18.052L40.7649 18.05C40.758 18.053 40.7501 18.0559 40.7432 18.0569C40.623 18.0855 40.5531 18.0993 40.5531 18.0993C40.555 18.1022 40.558 18.1052 40.56 18.1081C39.7157 18.3318 38.9779 18.6411 38.3385 19.0105L36.3023 17.9407L33.014 23.5745C33.6129 22.4702 34.0976 21.5954 34.3912 21.099C36.0964 18.2027 36.0491 17.8254 36.0491 17.8254C28.3564 15.07 29.0735 15.1952 23.9834 13.0033C19.0362 10.8744 20.2292 6.61283 20.2292 6.61283C18.1791 7.96835 15.1125 18.713 13.7481 23.3135C12.3827 27.914 24.4947 38.1877 24.4947 38.1877C24.4947 38.1877 28.5376 31.9352 31.5343 26.3279L31.3521 31.1481C31.3679 31.3067 31.5225 76.7126 31.6486 76.7126C32.5096 76.9067 35.2275 76.4171 35.2275 76.4171C37.5317 68.7431 37.8135 39.5433 40.2969 27.5721C41.6692 20.9522 45.9121 27.3052 46.3337 27.2421L53.5398 38.0025C56.0972 35.787 65.9897 25.1724 65.6499 22.2742Z" fill="black"/>
<path d="M32.6957 77.5687V24.3804H44.9141V77.5687" fill="white"/>
<path d="M32.6957 77.5687V24.3804H44.9141V77.5687" stroke="black" stroke-width="0.810651" stroke-miterlimit="10"/>
<path d="M20.1357 4.74585C23.9097 2.25154 29.8598 2.01807 39.0716 2.01807C48.2824 2.01807 58.4301 2.67514 59.956 5.97133C59.956 5.97133 61.3362 17.7809 40.6084 18.1227C30.7986 18.2823 22.9502 14.9694 21.3297 12.1588L19.2826 7.30124L20.1357 4.74585Z" fill="url(#paint0_linear_1_1786)" stroke="black" stroke-width="0.810651" stroke-miterlimit="10"/>
<path d="M29.5796 13.4561C29.5796 13.4561 35.3928 13.1123 38.8525 13.1123C42.3122 13.1123 50.202 13.3724 50.202 13.3724L49.6484 14.0797L40.7203 17.3296L36.0685 17.8862L32.6246 16.0844L29.5796 13.4561Z" fill="white" stroke="black" stroke-width="0.810651" stroke-miterlimit="10"/>
<path d="M38.3887 17.2202L34.1448 25.2617L31.3293 24.4282L36.2057 16.0735L38.3887 17.2202Z" fill="white" stroke="black" stroke-width="0.810651" stroke-miterlimit="10"/>
<path d="M46.5554 25.3245C46.5554 25.3245 38.9424 26.6002 34.1449 25.5166C33.8878 25.5166 33.9538 24.8772 33.9538 24.8772C33.9538 24.8772 33.8887 17.8356 40.6703 16.1855L47.9995 19.0975L46.5554 25.3245Z" fill="white" stroke="black" stroke-width="0.810651" stroke-miterlimit="10"/>
<path d="M39.4867 23.7953C40.546 23.7953 41.4048 22.9365 41.4048 21.8772C41.4048 20.818 40.546 19.9592 39.4867 19.9592C38.4275 19.9592 37.5687 20.818 37.5687 21.8772C37.5687 22.9365 38.4275 23.7953 39.4867 23.7953Z" stroke="black" stroke-width="0.810651" stroke-miterlimit="10"/>
<path d="M39.4859 22.7403C39.963 22.7403 40.3498 22.3535 40.3498 21.8764C40.3498 21.3993 39.963 21.0125 39.4859 21.0125C39.0087 21.0125 38.6219 21.3993 38.6219 21.8764C38.6219 22.3535 39.0087 22.7403 39.4859 22.7403Z" stroke="black" stroke-width="0.810651" stroke-miterlimit="10"/>
<path d="M38.8056 40.6698C39.8649 40.6698 40.7236 39.8111 40.7236 38.7518C40.7236 37.6925 39.8649 36.8337 38.8056 36.8337C37.7463 36.8337 36.8876 37.6925 36.8876 38.7518C36.8876 39.8111 37.7463 40.6698 38.8056 40.6698Z" stroke="black" stroke-width="0.810651" stroke-miterlimit="10"/>
<path d="M38.8058 39.6168C39.2835 39.6168 39.6708 39.2296 39.6708 38.7519C39.6708 38.2742 39.2835 37.887 38.8058 37.887C38.3282 37.887 37.9409 38.2742 37.9409 38.7519C37.9409 39.2296 38.3282 39.6168 38.8058 39.6168Z" stroke="black" stroke-width="0.810651" stroke-miterlimit="10"/>
<path d="M38.8056 67.8314C39.8649 67.8314 40.7236 66.9727 40.7236 65.9134C40.7236 64.8541 39.8649 63.9954 38.8056 63.9954C37.7463 63.9954 36.8876 64.8541 36.8876 65.9134C36.8876 66.9727 37.7463 67.8314 38.8056 67.8314Z" stroke="black" stroke-width="0.810651" stroke-miterlimit="10"/>
<path d="M39.6705 65.9123C39.6705 66.39 39.2844 66.7782 38.8046 66.7782C38.3278 66.7782 37.9417 66.39 37.9417 65.9123C37.9417 65.4384 38.3288 65.0513 38.8046 65.0513C39.2844 65.0513 39.6705 65.4374 39.6705 65.9123Z" stroke="black" stroke-width="0.810651" stroke-miterlimit="10"/>
<path d="M60.2348 6.10978C61.8701 9.21585 65.5574 19.5566 65.5574 20.4097C65.8973 23.306 56.0038 33.9196 53.4434 36.1361L42.4397 18.9173C42.4397 18.9173 41.097 16.7441 40.4567 16.2318C40.4567 16.2318 51.5766 13.8567 57.71 9.50252C60.9185 7.22198 58.1139 4.34741 58.1139 4.34741C58.1139 4.34741 58.3582 4.45479 58.6842 4.6331C59.2389 4.9306 59.8871 5.45074 60.2348 6.10978Z" fill="white" stroke="black" stroke-width="0.810651" stroke-miterlimit="10"/>
<path d="M35.9536 15.9574C35.9536 15.9574 36.0009 16.3338 34.2957 19.232C32.5875 22.1292 24.3982 36.3217 24.3982 36.3217C24.3982 36.3217 12.2863 26.045 13.6506 21.4455C15.017 16.845 18.0817 6.10333 20.1357 4.74683C20.1357 4.74683 18.9417 9.00646 23.888 11.1353C28.978 13.3292 28.2589 13.2011 35.9536 15.9574Z" fill="white" stroke="black" stroke-width="0.810651" stroke-miterlimit="10"/>
<path d="M14.0123 19.9879C14.0123 19.9879 15.1403 24.9904 23.8487 33.0742C28.6492 24.0289 32.7768 16.3903 33.5383 15.3027" stroke="#939598" stroke-width="0.810651" stroke-miterlimit="10"/>
<path d="M42.8119 15.7759L54.0944 33.1523C54.0944 33.1523 62.9536 24.2223 64.7366 18.0141" stroke="#939598" stroke-width="0.810651" stroke-miterlimit="10"/>
<path d="M24.6495 11.4574C24.6495 11.4574 26.9183 10.2576 39.8006 10.2576C52.683 10.2576 54.4138 11.5392 54.4138 11.5392" stroke="#939598" stroke-width="0.810651" stroke-miterlimit="10"/>
</g>
<defs>
<linearGradient id="paint0_linear_1_1786" x1="19.282" y1="10.0734" x2="59.9747" y2="10.0734" gradientUnits="userSpaceOnUse">
<stop stop-color="#D5D7D8"/>
<stop offset="0.1822" stop-color="white"/>
<stop offset="0.8283" stop-color="#EFF0F0"/>
<stop offset="1" stop-color="#C2C2C2"/>
</linearGradient>
<clipPath id="clip0_1_1786">
<rect width="78.8092" height="78.8092" fill="white" transform="translate(0.171021 0.387695)"/>
</clipPath>
</defs>
</svg>
