<svg width="92" height="93" viewBox="0 0 92 93" fill="none" xmlns="http://www.w3.org/2000/svg">
<g clip-path="url(#clip0_1_1810)">
<path d="M79.2799 25.9566C74.7845 21.7299 67.3722 14.4106 67.3722 14.4106C66.6341 13.0997 54.6748 8.92919 54.6748 8.92919L38.9491 8.19336C38.9491 8.19336 26.1232 13.6909 25.5733 14.2166C23.2969 16.5756 12.6279 26.2207 12.6279 26.2207L15.2716 51.0553L26.3229 39.4197C25.7065 66.8028 24.547 78.6645 24.547 78.6645C24.547 78.6645 27.9702 84.4478 46.9032 84.4478C65.8317 84.4478 68.0151 79.2052 68.0151 79.2052C66.9303 72.655 66.4941 61.489 65.3829 40.8397C65.3829 40.8397 71.6104 48.415 75.5777 52.6418L79.2799 25.9566Z" fill="white"/>
<path opacity="0.35" d="M16.1509 51.0617L18.138 53.33L26.4594 44.4863L26.324 40.0942L16.1509 51.0617Z" fill="black"/>
<path opacity="0.35" d="M29.3905 82.0814L28.2874 83.2925C28.2874 83.2925 31.7105 89.0747 50.6436 89.0747C69.5743 89.0747 71.8139 80.3859 71.8139 80.3859C71.8139 80.3859 71.3111 75.5772 69.5364 59.8871C68.8419 53.7502 68.4275 49.9367 69.029 50.777C69.7385 51.77 70.7314 53.4586 72.5762 55.5857C73.5692 53.3174 74.3957 52.1626 74.2005 51.91C71.2205 48.0828 65.5278 42.8562 65.4165 41.6462C65.5163 52.9856 66.2923 65.8403 66.4967 63.9359C65.7585 62.6261 68.2702 79.8785 68.2702 79.8785C68.2702 79.8785 66.2349 84.1317 51.9442 84.5633C37.6603 84.9938 31.9436 83.4854 31.9436 83.4854" fill="black"/>
<path d="M79.281 26.6311C74.7856 22.4033 67.3733 15.0851 67.3733 15.0851C66.6352 13.7742 54.6759 9.60368 54.6759 9.60368L38.9502 8.8667C38.9502 8.8667 26.1243 14.3642 25.5744 14.89C23.298 17.249 12.629 26.894 12.629 26.894" fill="white"/>
<path d="M79.281 26.6311C74.7856 22.4033 67.3733 15.0851 67.3733 15.0851C66.6352 13.7742 54.6759 9.60368 54.6759 9.60368L38.9502 8.8667C38.9502 8.8667 26.1243 14.3642 25.5744 14.89C23.298 17.249 12.629 26.894 12.629 26.894" stroke="black" stroke-width="0.946824" stroke-miterlimit="10"/>
<path d="M15.2725 51.7309L26.3237 40.0942C25.7073 67.4784 24.5478 79.3401 24.5478 79.3401C24.5478 79.3401 27.971 85.1223 46.9041 85.1223C65.8325 85.1223 68.0159 79.8774 68.0159 79.8774C66.9311 73.3307 66.4949 62.1635 65.3837 41.5131C65.3837 41.5131 71.6113 49.0884 75.5786 53.3151" stroke="black" stroke-width="0.946824" stroke-miterlimit="10"/>
<path d="M46.4452 16.6926L37.1469 19.0585C37.1469 19.0585 35.4077 14.7365 36.077 9.78315L37.5739 5.36012C39.7814 3.15721 46.762 3.59802 47.5794 3.59802C48.3967 3.59802 53.4614 3.53029 54.7047 5.32683C55.9467 7.12336 56.4656 10.4363 56.4656 10.4363C56.4656 10.4363 56.0099 19.1883 55.111 19.0585C52.9414 18.752 46.4452 16.6926 46.4452 16.6926Z" fill="white" stroke="black" stroke-width="0.946824" stroke-miterlimit="10"/>
<path d="M46.4449 16.6919C46.4449 16.6919 40.2219 11.9888 37.5736 5.35938L46.4449 16.6919Z" fill="white"/>
<path d="M46.4449 16.6919C46.4449 16.6919 40.2219 11.9888 37.5736 5.35938" stroke="black" stroke-width="0.946824" stroke-miterlimit="10"/>
<path d="M46.4452 16.6923C51.7946 12.741 54.5302 5.11523 54.5302 5.11523L46.4452 16.6923Z" fill="white"/>
<path d="M46.4452 16.6923C51.7946 12.741 54.5302 5.11523 54.5302 5.11523" stroke="black" stroke-width="0.946824" stroke-miterlimit="10"/>
<path d="M26.3047 30.3372C26.3047 30.3372 26.6594 38.4715 26.3047 44.7783" stroke="black" stroke-width="0.946824" stroke-miterlimit="10"/>
<path d="M65.6607 47.451C64.9375 39.9894 65.0924 31.5405 65.0924 31.5405" stroke="black" stroke-width="0.946824" stroke-miterlimit="10"/>
<path d="M45.1442 17.333V85.0319" stroke="black" stroke-width="0.946824" stroke-miterlimit="10"/>
<path d="M47.7627 17.2034V85.0319" stroke="black" stroke-width="0.946824" stroke-miterlimit="10"/>
</g>
<defs>
<clipPath id="clip0_1_1810">
<rect width="91.8355" height="91.8355" fill="white" transform="translate(0.0065918 0.401367)"/>
</clipPath>
</defs>
</svg>
