<svg width="92" height="92" viewBox="0 0 92 92" fill="none" xmlns="http://www.w3.org/2000/svg">
<path d="M45.8168 5.82328C42.0469 5.83376 38.2972 6.37478 34.6781 7.4304C29.6124 8.90754 24.8872 11.3681 20.7724 14.6715C16.6577 17.9749 13.2339 22.0566 10.6967 26.6833C8.15949 31.31 6.55851 36.3912 5.98518 41.6367C5.41185 46.8822 5.87741 52.1892 7.35526 57.2548C10.3397 67.4825 17.2644 76.1061 26.6062 81.229C35.9481 86.3518 46.9422 87.5544 57.1707 84.5722C62.2363 83.0946 66.9613 80.6335 71.0758 77.3296C75.1902 74.0257 78.6136 69.9436 81.1503 65.3165C83.687 60.6895 85.2874 55.6081 85.8601 50.3624C86.4328 45.1168 85.9666 39.8097 84.4881 34.7443C82.053 26.4012 76.9783 19.0727 70.0252 13.8582C63.0721 8.64367 54.6156 5.82438 45.9244 5.82328C45.8885 5.82323 45.8526 5.82323 45.8168 5.82328ZM45.7091 12.8132C60.1481 12.7127 73.5289 22.1528 77.7798 36.7173C82.9097 54.2952 72.7934 72.7341 55.2156 77.8639C37.6377 82.9759 19.1988 72.8776 14.0707 55.2997C8.94265 37.7038 19.0553 19.265 36.6332 14.1459C39.6466 13.2652 42.6958 12.8329 45.7091 12.8132ZM45.7271 16.0382C43.0187 16.0579 40.2564 16.4489 37.53 17.2453C21.6382 21.8837 12.5336 38.493 17.1702 54.3849C21.7996 70.2767 38.4089 79.3885 54.3187 74.7609C70.2106 70.1153 79.3224 53.506 74.6768 37.6142C70.8384 24.4487 58.8029 15.9413 45.7271 16.0382ZM53.7986 27.2827C55.7178 27.3185 57.4756 28.592 58.0316 30.5113C58.7311 32.861 57.35 35.39 54.9824 36.0716C52.6327 36.7532 50.1216 35.3721 49.422 33.0224C48.7404 30.6547 50.1216 28.1436 52.4713 27.462C52.9197 27.3365 53.3681 27.2827 53.7986 27.2827ZM53.7627 30.5113C53.6371 30.5113 53.5116 30.5292 53.386 30.5651C52.6865 30.7624 52.3278 31.426 52.5251 32.1255C52.7224 32.8071 53.386 33.1659 54.0856 32.9686C54.7671 32.7713 55.1438 32.1076 54.9286 31.4081C54.7671 30.852 54.3008 30.5113 53.7627 30.5113ZM31.4316 33.7219H31.7724C33.6737 33.7578 35.4315 35.0313 35.9875 36.9326C36.687 39.3002 35.3059 41.8113 32.9383 42.4929C30.5886 43.1924 28.0774 41.8113 27.3779 39.4437C26.6963 37.094 28.0774 34.5829 30.4271 33.8833C30.7679 33.7937 31.0908 33.7398 31.4316 33.7219ZM31.7186 36.9326C31.593 36.9326 31.4675 36.9505 31.3419 36.9864C30.6424 37.1837 30.2836 37.8653 30.481 38.5469C30.6783 39.2285 31.3598 39.6051 32.0414 39.4078C32.723 39.1926 33.0997 38.5289 32.9024 37.8473C32.741 37.2913 32.2567 36.9326 31.7186 36.9326ZM60.2378 49.3268C62.1391 49.3626 63.9148 50.6361 64.4709 52.5554C65.1525 54.9051 63.7713 57.4162 61.4216 58.1157C59.054 58.7973 56.5429 57.4162 55.8613 55.0665C55.1618 52.6989 56.5429 50.1877 58.9105 49.5061C59.341 49.3806 59.7894 49.3088 60.2378 49.3268ZM60.0943 52.5554C59.9867 52.5554 59.897 52.5733 59.8073 52.6092C59.1257 52.8065 58.7491 53.4701 58.9464 54.1517C59.1616 54.8512 59.8253 55.21 60.5069 55.0127C61.2064 54.8154 61.5651 54.1517 61.3678 53.4522C61.2064 52.8962 60.7221 52.5554 60.184 52.5554H60.0943ZM38.1937 55.7481C40.095 55.8019 41.8707 57.0575 42.4267 58.9767C43.1083 61.3443 41.7272 63.8554 39.3775 64.537C37.0099 65.2366 34.4988 63.8554 33.8172 61.4878C33.1356 59.1381 34.4988 56.627 36.8664 55.9274C37.3148 55.8019 37.7453 55.7481 38.1937 55.7481ZM38.1578 58.9767C38.0323 58.9767 37.8888 58.9946 37.7632 59.0305C37.0816 59.2278 36.705 59.8914 36.9202 60.591C37.1175 61.2726 37.7812 61.6492 38.4627 61.434C39.1623 61.2367 39.521 60.573 39.3237 59.8914C39.1623 59.3175 38.6959 58.9767 38.1578 58.9767Z" fill="white"/>
</svg>
