<svg width="142" height="141" viewBox="0 0 142 141" fill="none" xmlns="http://www.w3.org/2000/svg">
<g clip-path="url(#clip0_1_5107)">
<path opacity="0.35" d="M59.6805 16.2617L39.1315 25.5184C39.1315 25.5184 40.1767 51.3972 36.7786 57.1782C37.1364 63.0314 31.5951 60.3489 31.6074 66.7133C31.611 69.3588 21.7057 75.4429 21.9965 76.0246C22.5605 77.1508 26.0714 79.8104 26.0714 79.8104C26.0714 79.8104 31.6585 73.6611 33.3541 74.8578C35.5801 76.4352 37.1699 87.7135 37.1575 88.2457C36.7187 107.741 35.3933 124.536 35.3933 124.536C35.3933 124.536 40.9628 133.415 71.7431 133.415C102.518 133.415 107.002 124.536 107.002 124.536C107.002 124.536 104.237 91.0816 103.775 81.3861C103.743 80.7868 106.135 84.6044 107.21 85.2477C107.472 85.4046 120.571 76.6573 126.157 70.8622C109.952 31.955 127.45 71.5936 124.662 64.8961L108.285 79.8809C108.285 79.8809 106.521 79.6077 100.555 68.2361C88.1378 52.3912 82.1418 47.0544 82.452 44.1268C81.3205 42.1176 83.8462 17.3932 83.8462 17.3932L59.6805 16.2617Z" fill="black"/>
<path d="M35.1271 22.4355H33.4262C33.4262 22.4355 28.8878 26.8612 25.6519 32.2527C22.0387 38.2787 22.1462 38.1623 10.3904 56.0041C10.3904 56.0041 5.74618 62.936 6.14627 63.3485C7.61267 64.8484 21.1628 79.9759 21.8114 79.3238C22.7913 80.3019 31.729 68.2359 31.729 68.2359L35.1253 63.7115L37.487 32.5946L34.5772 23.0418L34.311 22.6876" fill="#939598"/>
<path d="M35.1271 22.4355H33.4262C33.4262 22.4355 28.8878 26.8612 25.6519 32.2527C22.0387 38.2787 22.1462 38.1623 10.3904 56.0041C10.3904 56.0041 5.74618 62.936 6.14627 63.3485C7.61267 64.8484 21.1628 79.9759 21.8114 79.3238C22.7913 80.3019 31.729 68.2359 31.729 68.2359L35.1253 63.7115L37.487 32.5946L34.5772 23.0418L34.311 22.6876" stroke="black" stroke-width="1.72179" stroke-miterlimit="10"/>
<path d="M97.1868 22.4355H98.8859C98.8859 22.4355 103.423 26.8612 106.66 32.2527C110.94 39.3855 110.818 39.2551 121.453 59.975C121.453 59.975 126.337 68.5126 125.933 68.925C124.469 70.4249 110.09 85.6511 107.272 80.7919C104.45 75.9257 100.587 68.2359 100.587 68.2359L97.1868 63.7115L94.8286 32.5946L97.7367 23.0418L98.0029 22.6876" fill="#939598"/>
<path d="M97.1868 22.4355H98.8859C98.8859 22.4355 103.423 26.8612 106.66 32.2527C110.94 39.3855 110.818 39.2551 121.453 59.975C121.453 59.975 126.337 68.5126 125.933 68.925C124.469 70.4249 110.09 85.6511 107.272 80.7919C104.45 75.9257 100.587 68.2359 100.587 68.2359L97.1868 63.7115L94.8286 32.5946L97.7367 23.0418L98.0029 22.6876" stroke="black" stroke-width="1.72179" stroke-miterlimit="10"/>
<path d="M55.2938 12.6641L34.7449 21.9172C34.7449 21.9172 35.7865 61.1504 32.3884 66.9332C34.1051 95.0698 31.0066 120.938 31.0066 120.938C31.0066 120.938 36.5708 129.817 67.3493 129.817C98.1296 129.817 102.608 120.938 102.608 120.938C102.608 120.938 98.0398 102.849 100.476 68.4296C97.0616 49.1725 98.3323 27.9978 98.9633 22.2168C97.8283 20.2058 79.4542 13.7938 79.4542 13.7938L55.2938 12.6641Z" fill="white" stroke="black" stroke-width="1.72179" stroke-miterlimit="10"/>
<path d="M66.8099 24.6805L52.5231 28.3183C52.5231 28.3183 49.8512 21.6719 50.8805 14.0685L53.1823 7.27229C56.5716 3.88477 67.2964 4.56333 68.5531 4.56333C69.808 4.56333 77.5929 4.45934 79.4999 7.22118C81.4087 9.97773 82.2054 15.0696 82.2054 15.0696C82.2054 15.0696 81.5057 28.5157 80.1239 28.3183C76.7927 27.8424 66.8099 24.6805 66.8099 24.6805Z" fill="white" stroke="black" stroke-width="1.72179" stroke-miterlimit="10"/>
<path d="M66.8098 24.6895C66.8098 24.6895 57.2482 17.465 53.1821 7.28125" stroke="black" stroke-width="1.72179" stroke-miterlimit="10"/>
<path d="M66.8101 24.6838C75.0321 18.6138 79.2304 6.89844 79.2304 6.89844" stroke="black" stroke-width="1.72179" stroke-miterlimit="10"/>
</g>
<defs>
<clipPath id="clip0_1_5107">
<rect width="141" height="141" fill="white" transform="translate(0.162842)"/>
</clipPath>
</defs>
</svg>
