<svg width="93" height="93" viewBox="0 0 93 93" fill="none" xmlns="http://www.w3.org/2000/svg">
<g clip-path="url(#clip0_1_1724)">
<path opacity="0.35" d="M40.7621 13.251L27.3771 19.28C27.3771 19.28 28.0555 36.1352 25.8457 39.9005C26.9638 58.2263 24.9446 83.7715 24.9446 83.7715C24.9446 83.7715 28.5698 89.5583 48.6152 89.5583C68.6606 89.5583 71.581 83.7715 71.581 83.7715C71.581 83.7715 69.5434 70.7458 69.2391 64.4286C69.2231 64.0395 77.1416 79.997 79.4363 85.9939C79.5064 86.1799 85.7902 83.1722 91.9696 79.4655C91.0891 77.351 90.5565 76.6462 90.5565 76.6462L82.0846 81.0543C82.0846 81.0543 69.8946 56.3287 65.8412 45.879C57.7551 35.559 55.3881 33.3044 55.5935 31.4023C54.8566 30.0902 56.5004 13.988 56.5004 13.988L40.7621 13.251Z" fill="black"/>
<path opacity="0.35" d="M11.9717 80.5321C12.3482 80.8788 13.5834 83.6993 13.5834 83.6993C13.5834 83.6993 21.5409 79.3164 23.8242 76.9987C24.8596 75.9461 17.4669 59.1872 17.4669 59.1872L23.9952 48.9602L21.7269 46.0444L14.465 58.4801L20.4676 74.8796L14.9931 79.6425L11.9717 80.5321Z" fill="black"/>
<path d="M65.3603 15.7085L65.2994 15.7797C65.2994 15.7797 68.656 19.2993 70.6465 22.8786C72.9011 26.9342 75.6481 34.9044 75.6481 34.9044C75.6481 34.9044 85.0062 58.9493 85.509 60.2189C86.0106 61.4885 88.5131 70.3943 88.768 71.4791C89.0148 72.5616 91.1856 76.1133 91.1856 76.1133L81.4154 81.3215L79.0759 76.483C79.0759 76.483 77.1175 72.0335 75.5161 68.7401C73.2937 64.169 73.5543 65.9965 66.4933 47.0531L64.5303 36.864L64.2996 21.6824L64.7197 16.0116L64.8953 15.7797" fill="#939598"/>
<path d="M65.3603 15.7085L65.2994 15.7797C65.2994 15.7797 68.656 19.2993 70.6465 22.8786C72.9011 26.9342 75.6481 34.9044 75.6481 34.9044C75.6481 34.9044 85.0062 58.9493 85.509 60.2189C86.0106 61.4885 88.5131 70.3943 88.768 71.4791C89.0148 72.5616 91.1856 76.1133 91.1856 76.1133L81.4154 81.3215L79.0759 76.483C79.0759 76.483 77.1175 72.0335 75.5161 68.7401C73.2937 64.169 73.5543 65.9965 66.4933 47.0531L64.5303 36.864L64.2996 21.6824L64.7197 16.0116L64.8953 15.7797" stroke="black" stroke-width="0.63627" stroke-miterlimit="10"/>
<path d="M14.4077 58.6718L17.848 69.8378L20.517 74.5123C20.517 74.5123 17.5691 79.1259 12.1692 80.8489C6.87944 72.2302 5.98863 69.1181 5.59833 67.6694C5.20918 66.2253 6.21134 42.6476 6.87944 38.3107C6.87944 38.3107 22.6924 15.5206 23.5281 15.1463C24.0033 14.9328 24.4946 14.8984 25.5507 14.3967C26.6092 13.8962 24.6358 32.8052 24.6358 32.8052L23.3547 42.6476L22.4811 43.5625L14.4077 58.6718Z" fill="#939598" stroke="black" stroke-width="0.63627" stroke-miterlimit="10"/>
<path d="M9.79749 76.9853C13.2918 75.1589 18.4748 70.5706 18.4748 70.5706" stroke="black" stroke-width="0.63627" stroke-miterlimit="10"/>
<path d="M80.0195 76.2279L88.7692 71.48" stroke="black" stroke-width="0.63627" stroke-miterlimit="10"/>
<path d="M36.804 9.2959L23.4167 15.3249C23.4167 15.3249 24.0951 40.8758 21.8865 44.6434C23.0034 62.9715 20.983 79.8175 20.983 79.8175C20.983 79.8175 24.6082 85.6032 44.6559 85.6032C64.7013 85.6032 67.6217 79.8175 67.6217 79.8175C67.6217 79.8175 64.6428 68.0396 66.2315 45.618C64.0068 33.0779 64.8368 19.2865 65.242 15.5201C64.5039 14.208 52.5389 10.034 52.5389 10.034L36.804 9.2959Z" fill="white" stroke="black" stroke-width="0.63627" stroke-miterlimit="10"/>
<path d="M44.3033 17.1285L34.9992 19.4967C34.9992 19.4967 33.2566 15.1689 33.9281 10.2144L35.4239 5.79024C37.6337 3.58389 44.6178 4.0247 45.4363 4.0247C46.2559 4.0247 51.3264 3.95697 52.5685 5.7558C53.8117 7.55118 54.3294 10.8676 54.3294 10.8676C54.3294 10.8676 53.8748 19.6264 52.9737 19.4978C50.8041 19.1879 44.3033 17.1285 44.3033 17.1285Z" fill="white" stroke="black" stroke-width="0.63627" stroke-miterlimit="10"/>
<path d="M44.3035 17.1283C44.3035 17.1283 38.077 12.4217 35.4253 5.79004" stroke="black" stroke-width="0.63627" stroke-miterlimit="10"/>
<path d="M44.3033 17.1283C49.6574 13.1737 52.3963 5.54443 52.3963 5.54443" stroke="black" stroke-width="0.63627" stroke-miterlimit="10"/>
</g>
<defs>
<clipPath id="clip0_1_1724">
<rect width="91.8355" height="91.8355" fill="white" transform="translate(0.657837 0.989746)"/>
</clipPath>
</defs>
</svg>
